# xmcd CD database file
#
# Track frame offsets:
#	150
#	15508
#	34004
#	51435
#	63920
#	70955
#	101446
#	105209
#	155779
#	185798
#	245486
#	260437
#	275333
#
# Disc length: 3948 seconds
#
# Revision: 0
# Processed by: cddbd v1.5.1PL0 Copyright (c) Steve Scherf et al.
# Submitted via: CDex 1.51
#
DISCID=b10f6a0d
DTITLE=Street and Admiral - My Very First Solo
DYEAR=2003
DGENRE=Jazz
TTITLE0=Sonata In Jazz - Swing
TTITLE1=Sonata In Jazz - Blues
TTITLE2=Sonata In Jazz - Boogie
TTITLE3=Tour De France - Jour De Marche
TTITLE4=Tour De France - Monsieur Le Postmoderne
TTITLE5=Tour De France - Carpentras
TTITLE6=Tour De France - Le Mignon Minime
TTITLE7=Doo-Dah For Three Alto Saxaphones
TTITLE8=Klonos
TTITLE9=My Very First Solo
TTITLE10=Sonate - Allegro
TTITLE11=Sonate - Lento
TTITLE12=Sonate - Allegro Moderato
EXTD=YEAR: 2003
EXTT0=
EXTT1=
EXTT2=
EXTT3=
EXTT4=
EXTT5=
EXTT6=
EXTT7=
EXTT8=
EXTT9=
EXTT10=
EXTT11=
EXTT12=
PLAYORDER=
